<svg xmlns="http://www.w3.org/2000/svg" width="76" height="76" fill="none"><path stroke="#768774" stroke-linecap="round" stroke-linejoin="round" stroke-width="2" d="M66.724 44.744a10.166 10.166 0 0 0 2.723-4.46c1.037-3.498.094-7.1-2.186-9.642a10.183 10.183 0 0 0 1.83-3.486c1.604-5.417-1.545-11.09-7.034-12.675l-.082-.026c.653-3.372-1.387-6.744-4.798-7.73a6.894 6.894 0 0 0-4.11.086 10.3 10.3 0 0 0-6.432-5.39 10.48 10.48 0 0 0-6.443.2c-1.623.58-2.653 2.033-2.653 3.738V57.76c0 1.705 1.033 3.16 2.664 3.739a10.432 10.432 0 0 0 4.396.57m-1.63-21.42h-2.943m13.736-24.646a6.001 6.001 0 0 0 .165-3.334 6.022 6.022 0 0 0-1.657-2.905l-.067-.063a6.13 6.13 0 0 0-4.272-1.678 6.16 6.16 0 0 0-4.313 1.79M60.415 40.83a5.992 5.992 0 0 0 2.018-4.168 5.973 5.973 0 0 0-1.56-4.353 6.102 6.102 0 0 0-3.196-1.85 6.189 6.189 0 0 0-3.701.312m-3.193 8.826a6.012 6.012 0 0 0-2.702 3.772 5.943 5.943 0 0 0 .797 4.55m-.425-23.665a6.19 6.19 0 0 0-4.643.604l-.072.044a6.026 6.026 0 0 0-2.78 3.62 5.95 5.95 0 0 0 .613 4.576 6.087 6.087 0 0 0 3.715 2.816m-4.358-18.618s.827 4.186 5.68 4.094m9.513 4.153s4.264.752 5.925-3.753M41.337 56.96s1.473 1.041 3.45.86M27.898 40.65h2.941M17.11 16.004a6 6 0 0 1-.166-3.335c.65-2.723 3.13-4.665 5.997-4.646a6.16 6.16 0 0 1 4.313 1.79M10.45 40.83a5.992 5.992 0 0 1-2.017-4.168 5.973 5.973 0 0 1 1.56-4.353 6.102 6.102 0 0 1 3.196-1.85 6.189 6.189 0 0 1 3.7.312c.553.226.812.849.583 1.393m2.611 7.433a6.012 6.012 0 0 1 2.702 3.772 5.943 5.943 0 0 1-.797 4.55 6.105 6.105 0 0 1-3.828 2.663 6.156 6.156 0 0 1-4.61-.785m8.866-25.543a6.19 6.19 0 0 1 4.644.604l.071.044a6.026 6.026 0 0 1 2.78 3.62A5.95 5.95 0 0 1 29.3 33.1a6.087 6.087 0 0 1-3.716 2.816m4.355-18.618s-.827 4.186-5.68 4.094m-9.51 4.153s-4.264.752-5.924-3.753M29.529 56.96s-3.494 2.475-6.961-.875m8.1 5.414c-.2.07-.406.14-.613.196-4.707 1.356-9.617-.737-11.928-4.78-3.648.078-7.037-2.249-8.111-5.865a8.03 8.03 0 0 1-.237-3.542c-3.847-.589-7.19-3.305-8.36-7.232-1.036-3.498-.093-7.1 2.187-9.641a10.184 10.184 0 0 1-1.83-3.487C.173 21.732 3.322 16.06 8.81 14.473l.082-.026c-.653-3.371 1.387-6.743 4.798-7.729a6.894 6.894 0 0 1 4.11.086 10.3 10.3 0 0 1 6.432-5.391 10.48 10.48 0 0 1 6.443.2c1.623.582 2.653 2.034 2.653 3.738v52.402c0 1.704-1.034 3.16-2.664 3.738l.004.008Z"/><path fill="#768774" fill-rule="evenodd" d="M61.137 46.588c8.037 0 14.55 6.513 14.55 14.55 0 8.036-6.513 14.549-14.55 14.549-8.036 0-14.55-6.513-14.55-14.55 0-8.036 6.514-14.549 14.55-14.549Zm-.963 4.986h1.93c.874 0 1.591.717 1.591 1.59v5.419h5.419c.874 0 1.59.717 1.59 1.59v1.932c0 .873-.716 1.59-1.59 1.59h-5.419v5.42c0 .873-.717 1.59-1.59 1.59h-1.931c-.874 0-1.591-.717-1.591-1.59v-5.42h-5.419c-.874 0-1.59-.713-1.59-1.59v-1.931c0-.874.716-1.591 1.59-1.591h5.419v-5.419c0-.873.713-1.59 1.59-1.59Z" clip-rule="evenodd"/></svg>