<svg width="25" height="25" fill="none" xmlns="http://www.w3.org/2000/svg"><g clip-path="url(#a)" fill="#768774"><path d="M12.4999 0C19.4035 0 25 5.59653 25 12.5001c0 6.9036-5.5965 12.5002-12.5001 12.5002-6.90363 0-12.500157-5.5966-12.500157-12.5002C-.000257 5.59653 5.59627 0 12.4999 0Zm0 23.3029c5.9663 0 10.803-4.8367 10.803-10.803 0-5.96635-4.8367-10.80283-10.803-10.80283-5.96635 0-10.80309 4.83673-10.80309 10.80303 0 5.9664 4.83674 10.8031 10.80309 10.8031v-.0003Z"/><path d="M12.3761 13.1345c.4156 0 .7539-.3386.7539-.7549V5.72151c0-.34268-.2752-.62834-.6135-.63704h-.0166c-.1683 0-.3263.06547-.4455.18464-.1189.11892-.1847.27722-.1847.4455v5.96659l-3.79713-1.481-.00205-.0007c-.06675-.0241-.13656-.0364-.20715-.0364-.2565 0-.48768.1622-.57489.4036-.02404.0665-.03632.1363-.03632.2074 0 .2557.16112.4861.40151.5739l4.44753 1.7349c.0887.0345.181.0521.2746.0521l.0003-.0005Z"/></g><defs><clipPath id="a"><path fill="#fff" transform="matrix(-1 0 0 1 25 0)" d="M0 0h25v25H0z"/></clipPath></defs></svg>