<svg width="20" height="27" fill="none" xmlns="http://www.w3.org/2000/svg"><g clip-path="url(#a)" stroke="#768774" stroke-miterlimit="10"><path d="M9.89 1.37c1.15 0 2.27.23 3.32.67 1.02.43 1.93 1.04 2.71 1.83.78.78 1.4 1.7 1.83 2.71.44 1.05.67 2.17.67 3.32 0 2.21-.46 4.38-1.38 6.46-.74 1.68-1.77 3.29-3.07 4.81-1.17 1.36-2.33 2.39-3.11 3.01-.39.31-.72.56-.97.73-.25-.17-.58-.42-.97-.73-.77-.62-1.94-1.65-3.11-3.01-1.3-1.52-2.33-3.14-3.07-4.81-.92-2.08-1.38-4.25-1.38-6.46 0-1.15.23-2.27.67-3.32.43-1.02 1.04-1.93 1.83-2.71.78-.78 1.7-1.4 2.71-1.83 1.05-.44 2.17-.67 3.32-.67Zm0-.87C4.7.5.5 4.7.5 9.89c0 10.26 9.39 16.06 9.39 16.06s9.39-5.79 9.39-16.06C19.28 4.7 15.08.5 9.89.5Z" fill="#768774"/><path d="M9.89 4.34021c1.48 0 2.88.58 3.93 1.63 1.05 1.05 1.63 2.44 1.63 3.93 0 1.48999-.58 2.87999-1.63 3.92999-1.05 1.05-2.44 1.63-3.93 1.63-1.49 0-2.88-.58-3.93-1.63-1.05-1.05-1.63-2.44-1.63-3.92999 0-1.49.58-2.88 1.63-3.93 1.05-1.05 2.44-1.63 3.93-1.63Zm0-.87c-3.55 0-6.42 2.88-6.42 6.42 0 3.53999 2.88 6.41999 6.42 6.41999s6.42-2.88 6.42-6.41999c0-3.54-2.88-6.42-6.42-6.42Z" fill="#000"/></g><defs><clipPath id="a"><path fill="#fff" d="M0 0h19.78v26.54H0z"/></clipPath></defs></svg>