<svg width="9" height="17" fill="none" xmlns="http://www.w3.org/2000/svg"><path fill-rule="evenodd" clip-rule="evenodd" d="M2.32905 8.56601v8.07169c0 .1145.09247.2113.21137.2113h2.9988c.11449 0 .21137-.0924.21137-.2113V8.4339h2.17534c.11009 0 .19816-.08366.21137-.19375l.20696-2.47038c.00881-.1233-.08807-.22898-.21137-.22898h-2.3823v-1.7526c0-.40953.33467-.7442.74419-.7442h1.67334c.11449 0 .21137-.09247.21137-.21137V.362248c0-.114492-.09247-.211369-.21137-.211369H5.33666c-1.66013 0-3.00761 1.347481-3.00761 3.007601v2.38231H.831852c-.114491 0-.211369.09247-.211369.21137v2.47038c0 .11449.092474.21136.211369.21136H2.32905v.13211Z" fill="#383E31"/></svg>