<svg width="19" height="19" fill="none" xmlns="http://www.w3.org/2000/svg"><path d="M15 4.95098c0 .54604-.4404.98639-.9864.98639s-.9864-.44476-.9864-.98639c0-.54163.4448-.98639.9864-.98639.5416 0 .9864.44476.9864.98639Zm-1.233 4.42995c0 2.28987-1.8627 4.15247-4.15251 4.15247-2.28984 0-4.15253-1.8626-4.15253-4.15247 0-2.28984 1.86269-4.15253 4.15253-4.15253 2.28981 0 4.15251 1.86269 4.15251 4.15253Zm-1.4928 0c0-1.46638-1.1933-2.65973-2.65971-2.65973-1.46638 0-2.65973 1.19335-2.65973 2.65973 0 1.46637 1.19335 2.65977 2.65973 2.65977 1.46641 0 2.65971-1.1934 2.65971-2.65977Zm5.7466-3.33787c0-2.79624-2.2678-5.064056-5.064-5.064056H6.04763C3.2514.979004.983582 3.24682.983582 6.04306v6.90914c0 2.7962 2.267818 5.064 5.064048 5.064h6.90917c2.7962 0 5.064-2.2678 5.064-5.064V6.04306Zm-1.6645 6.83424c0 1.92-1.5589 3.4788-3.4788 3.4788H6.11809c-1.91994 0-3.47878-1.5588-3.47878-3.4788V6.11791c0-1.91993 1.55884-3.47878 3.47878-3.47878h6.75941c1.9199 0 3.4788 1.55885 3.4788 3.47878v6.75939Z" fill="#383E31"/></svg>