<svg width="17" height="16" fill="none" xmlns="http://www.w3.org/2000/svg"><path d="M1.14611 5.2681h3.15733V15.405H1.14611V5.2681ZM2.72257.230469c1.00841 0 1.82746.819051 1.82746 1.827461s-.81905 1.82746-1.82746 1.82746c-1.0084 0-1.827459-.81905-1.827459-1.82746S1.71417.230469 2.72257.230469ZM6.28062 15.405h3.14852v-5.0156c0-1.32106.251-2.60249 1.88906-2.60249 1.6382 0 1.6382 1.51041 1.6382 2.69059v4.9275h3.1485V9.84336c0-2.73019-.5901-4.83067-3.7782-4.83067-1.5369 0-2.56289.84108-2.98563 1.63811h-.03963V5.26369H6.27622V15.4006l.0044.0044Z" fill="#383E31"/></svg>