<svg width="23" height="23" fill="none" xmlns="http://www.w3.org/2000/svg"><g clip-path="url(#a)"><mask id="b" fill="#fff"><path d="M1.36773 4.40023c-.09457.10515-.18452.21487-.26755.33145C.348275 5.39-.246791 6.8415.103791 8.62901 1.60299 16.3734 8.18562 22.2731 16.1106 22.9772c.1707.016.3414.0228.5097.0228.9111 0 1.7691-.2217 2.4541-.6377.3298-.1898.6251-.4252.8742-.6995l.6804-.7452c1.3262-1.4538 1.2132-3.7076-.2538-5.0242l-1.1486-1.0286c-.6619-.5921-1.5153-.919-2.4056-.919-1.0125 0-1.9836.4275-2.6617 1.1704l-.6804.7452c-.2652.2903-.4797.6194-.6342.976-2.7124-1.1315-4.93816-3.1499-6.31512-5.7283.4982-.2011.94796-.512 1.31238-.9097l.6804-.7452c.6435-.70404.97102-1.61608.92259-2.5647-.04844-.94862-.46591-1.82181-1.1763-2.45955L7.12004 3.40132c-.66196-.59202-1.51535-.9189-2.40564-.9189-1.01253 0-1.98355.42745-2.66396 1.17035l-.6804.74518-.00231.00228Zm1.36312-.13486c.50511-.55317 1.22473-.86862 1.97894-.86862.66195 0 1.29623.2423 1.7875.68347l1.14862 1.02862c.52818.47316.83955 1.12234.87415 1.82866.0369.70404-.20759 1.38293-.68502 1.90638l-.68041.74518c-.32751.35888-.74268.61944-1.20627.75894l-.20759.0617c-.12916.0388-.23525.1326-.29061.256-.05305.1234-.05074.2651.00923.3863l.09687.192c1.50611 2.9967 4.06628 5.326 7.20764 6.5558l.1799.0685c.1177.0457.2491.0412.3645-.0114.1153-.0526.2029-.1509.2421-.2697l.06-.1783c.1176-.3452.3022-.6583.5489-.9304l.6804-.7451c.5052-.5532 1.2271-.8709 1.979-.8709.6619 0 1.2962.2423 1.7875.6834l1.1486 1.0287c1.091.976 1.174 2.6515.1891 3.7327l-.6804.7452c-.1868.2034-.4059.3794-.6619.528-.6527.3977-1.5061.5715-2.408.4915-7.51671-.6675-13.76029-6.2655-15.18337-13.60985-.299841-1.54065.26524-2.67214.71961-3.05615.01384-.01143.02768-.02515.04152-.04115l.03229-.03429c.01384-.016.02537-.02971.0369-.04571.06458-.09372.13608-.18287.2122-.26744l.6804-.74518-.0023-.00686Z"/></mask><path d="M1.36773 4.40023c-.09457.10515-.18452.21487-.26755.33145C.348275 5.39-.246791 6.8415.103791 8.62901 1.60299 16.3734 8.18562 22.2731 16.1106 22.9772c.1707.016.3414.0228.5097.0228.9111 0 1.7691-.2217 2.4541-.6377.3298-.1898.6251-.4252.8742-.6995l.6804-.7452c1.3262-1.4538 1.2132-3.7076-.2538-5.0242l-1.1486-1.0286c-.6619-.5921-1.5153-.919-2.4056-.919-1.0125 0-1.9836.4275-2.6617 1.1704l-.6804.7452c-.2652.2903-.4797.6194-.6342.976-2.7124-1.1315-4.93816-3.1499-6.31512-5.7283.4982-.2011.94796-.512 1.31238-.9097l.6804-.7452c.6435-.70404.97102-1.61608.92259-2.5647-.04844-.94862-.46591-1.82181-1.1763-2.45955L7.12004 3.40132c-.66196-.59202-1.51535-.9189-2.40564-.9189-1.01253 0-1.98355.42745-2.66396 1.17035l-.6804.74518-.00231.00228Zm1.36312-.13486c.50511-.55317 1.22473-.86862 1.97894-.86862.66195 0 1.29623.2423 1.7875.68347l1.14862 1.02862c.52818.47316.83955 1.12234.87415 1.82866.0369.70404-.20759 1.38293-.68502 1.90638l-.68041.74518c-.32751.35888-.74268.61944-1.20627.75894l-.20759.0617c-.12916.0388-.23525.1326-.29061.256-.05305.1234-.05074.2651.00923.3863l.09687.192c1.50611 2.9967 4.06628 5.326 7.20764 6.5558l.1799.0685c.1177.0457.2491.0412.3645-.0114.1153-.0526.2029-.1509.2421-.2697l.06-.1783c.1176-.3452.3022-.6583.5489-.9304l.6804-.7451c.5052-.5532 1.2271-.8709 1.979-.8709.6619 0 1.2962.2423 1.7875.6834l1.1486 1.0287c1.091.976 1.174 2.6515.1891 3.7327l-.6804.7452c-.1868.2034-.4059.3794-.6619.528-.6527.3977-1.5061.5715-2.408.4915-7.51671-.6675-13.76029-6.2655-15.18337-13.60985-.299841-1.54065.26524-2.67214.71961-3.05615.01384-.01143.02768-.02515.04152-.04115l.03229-.03429c.01384-.016.02537-.02971.0369-.04571.06458-.09372.13608-.18287.2122-.26744l.6804-.74518-.0023-.00686Z" fill="#768774"/><path d="M1.36773 4.40023-2.15189.848856l-.10201.1011-.09605.106794 3.71768 3.34348Zm-.26755.33145 3.29366 3.76189.4398-.38506.33912-.47613-4.07258-2.9007ZM.103791 8.62901l4.908879-.95028-.00236-.01202-4.906519.9623ZM16.1106 22.9772l.4667-4.9782-.0121-.0012-.0121-.001-.4425 4.9804Zm2.9638-.6149-2.4931-4.3341-.0515.0296-.0508.0309 2.5954 4.2736Zm.8742-.6995-3.6924-3.3714-.0091.01 3.7015 3.3614Zm.6804-.7452 3.6923 3.3714.0016-.0016-3.6939-3.3698Zm-.2538-5.0242 3.3399-3.721-.0042-.0038-3.3357 3.7248Zm-1.1486-1.0286 3.3357-3.7248-.0025-.0021-3.3332 3.7269Zm-5.0673.2514 3.6924 3.3714.0006-.0006-3.693-3.3708Zm-.6804.7452 3.6913 3.3726.0011-.0012-3.6924-3.3714Zm-.6342.976-1.925 4.6146 4.5516 1.8988 1.9611-4.5252-4.5877-1.9882Zm-6.31512-5.7283L4.6576 6.47279-.502131 8.5561 2.1191 13.4645l4.41048-2.3554Zm1.31238-.9097 3.68654 3.3778.0058-.0064-3.69234-3.3714Zm.6804-.7452L4.83173 6.08089l-.00174.00189L8.52236 9.4542Zm-.25371-5.02425L11.6088.709299l-.0045-.004085L8.26865 4.42995ZM7.12004 3.40132 10.4557-.32341l-.0025-.002157L7.12004 3.40132Zm-5.0696.25145L-1.63677.275706l-.00516.005649L2.05044 3.65277Zm-.6804.74518 3.51962 3.55137.08862-.08783.08413-.09213-3.69237-3.37141Zm1.36081-.13258L-.961429.893854-2.94699 3.06832l.9387 2.79098 4.73914-1.59393Zm3.76644-.18515L3.15658 7.80039l.00509.00456 3.33562-3.72473Zm1.14862 1.02862 3.33629-3.72416-.0007-.00058-3.33559 3.72474Zm.87415 1.82866-4.99402.24462.00042.00855.00045.00856 4.99315-.26173Zm-.68502 1.90638 3.69236 3.37142.0018-.002-3.69416-3.36942Zm-.68041.74518L3.46226 6.21765l-.00083.00091 3.6932 3.3705Zm-1.20627.75894 1.42493 4.7926.00759-.0022.00759-.0023-1.44011-4.7881Zm-.20759.0617L4.31584 5.61702l-.00779.00231-.00778.00234 1.4405 4.78803Zm-.29061.256L.88792 8.61972l-.016026.03574-.015463.03598L5.45016 10.6657Zm.00923.3863L.978312 13.2701l.008447.0171.008577.017L5.45939 11.052Zm.09687.192 4.46754-2.24532-.0035-.00685L5.55626 11.244Zm7.20764 6.5558-1.8226 4.6559.0208.0082.021.008 1.7808-4.6721Zm.1799.0685 1.8113-4.6604-.0152-.0059-.0152-.0058-1.7809 4.6721Zm.6066-.2811-4.73909-1.594-.00463.0138-.00456.0138 4.74828 1.5664Zm.06-.1783L8.87769 15.796l-.00322.0095-.00319.0094 4.73912 1.594Zm.5489-.9304-3.6923-3.3714-.0054.0059-.0053.0059 3.703 3.3596Zm.6804-.7451-3.6922-3.3715-.0001.0001 3.6923 3.3714Zm3.7665-.1875-3.3407 3.7202.0051.0046 3.3356-3.7248Zm1.1486 1.0287-3.3356 3.7247.0018.0016 3.3338-3.7263Zm.1891 3.7327 3.6924 3.3714.004-.0044-3.6964-3.367Zm-.6804.7452 3.6828 3.3819.0048-.0052.0048-.0053-3.6924-3.3714Zm-.6619.528-2.5097-4.3245-.0463.0269-.0458.0278 2.6018 4.2698Zm-2.408.4915-.4422 4.9804h.0004l.4418-4.9804ZM1.01023 8.46215l4.9087-.95114-.00078-.00404-4.90792.95518ZM1.72984 5.406l-3.18393-3.85521-.02189.01808-.02168.01833 3.2275 3.8188Zm.04152-.04115-3.63994-3.42794-.07259.07707-.06926.08008 3.78179 3.27079Zm.03229-.03429 3.63994 3.42795.07259-.07708.06926-.08008-3.78179-3.27079Zm.0369-.04571 4.05627 2.92348.0309-.04288.02998-.04351-4.11715-2.83709Zm.2122-.26744L-1.63962 1.646l-.01215.0133-.01206.0134 3.71658 3.34471Zm.6804-.74518 3.69237 3.37141 1.98544-2.17446-.93868-2.79089-4.73913 1.59394Zm-5.0831-3.21548c-.19616.21811-.40986.47575-.62245.77422l8.14516 5.80141c-.04652.06532-.08032.10352-.08736.11134l-7.43535-6.68697Zm.15647-.086961C-4.50927 2.99734-5.43551 6.36497-4.80273 9.59132l9.81304-1.92461c-.02222-.11334.0061-.10319-.02938.01608-.01688.05673-.05313.15434-.13095.28229-.07435.12225-.21365.31618-.45614.52849L-2.19348.969789ZM-4.80508 9.5793c1.92817 9.9603 10.35492 17.4794 20.47328 18.3782l.8849-9.9607c-5.7317-.5092-10.47022-4.7896-11.54044-10.31807L-4.80508 9.5793Zm20.44898 18.376c.3457.0324.6735.0447.9764.0447V18c-.0338 0-.0473-.0014-.043-.001l-.9334 9.9563Zm.9764.0447c1.6905 0 3.4736-.407 5.0495-1.3641l-5.1908-8.5472c.1099-.0668.1819-.0873.1972-.0913.0163-.0042-.0028.0026-.0559.0026v10Zm4.9472-1.3036c.7611-.4378 1.4688-.9963 2.0825-1.6722l-7.4029-6.7228c.1155-.1273.2328-.2149.3342-.2732l4.9862 8.6682Zm2.0734-1.6622.6804-.7452-7.3847-6.7428-.6804.7452 7.3847 6.7428Zm.682-.7468c3.2007-3.5087 2.9227-8.9462-.6078-12.115l-6.6797 7.442c-.5967-.5356-.6487-1.4654-.1003-2.0665l7.3878 6.7395Zm-.612-12.1188L22.5623 11.14l-6.6713 7.4495 1.1486 1.0286 6.6713-7.4495Zm-1.1511-1.0307c-1.5772-1.41065-3.6168-2.19205-5.7388-2.19205v9.99995c-.3414 0-.6743-.1276-.9276-.3542l6.6664-7.4537ZM16.821 8.94585c-2.4097 0-4.7237 1.0128-6.3546 2.79955l7.3859 6.7416c-.2747.3009-.6467.4588-1.0313.4588V8.94585Zm-6.354 2.79895-.68043.7452 7.38473 6.7428.6804-.7452-7.3847-6.7428Zm-.67931.7439c-.62967.6892-1.15087 1.484-1.53075 2.3606l9.17546 3.9763c-.0708.1634-.163.2998-.2622.4084l-7.38251-6.7453Zm4.98201-.2659c-1.6552-.6904-2.9994-1.9144-3.8296-3.469l-8.821 4.7107c1.92371 3.6022 5.03096 6.415 8.8006 7.9875l3.85-9.2292Zm-6.36813 3.5227c1.18546-.4787 2.25623-1.2181 3.12693-2.1684L4.15541 6.82161c.14185-.15483.31311-.27247.50219-.34882l3.74397 9.27271Zm3.13273-2.1747.6804-.7452-7.38471-6.74282-.6804.74518 7.38471 6.74284Zm.6787-.7433c1.5433-1.6884 2.3422-3.90636 2.2254-6.19297l-9.98695.50993c-.01988-.38937.12401-.7832.38028-1.06357L12.213 12.8275Zm2.2254-6.19297c-.1166-2.28466-1.1339-4.40292-2.8296-5.925228L4.92847 8.15059c-.27493-.24682-.45724-.6187-.47702-1.00613l9.98695-.50993ZM11.6043.705214 10.4557-.323409 3.78442 7.12606l1.14861 1.02862L11.6043.705214ZM10.4532-.325567C8.87603-1.73618 6.83644-2.51758 4.7144-2.51758v10c-.34145 0-.67427-.12765-.92757-.3542L10.4532-.325567ZM4.7144-2.51758c-2.41118 0-4.7212 1.01363-6.35117 2.79329l7.37442 6.75411c-.26916.29388-.63714.4526-1.02325.4526v-10ZM-1.64193.281355l-.6804.745185 7.38474 6.74282.6804-.74518L-1.64193.281355Zm-.50765.565215-.00231.002286L4.88735 7.95161l.00231-.00229L-2.14958.84657Zm8.5727 6.79031c-.45156.49452-1.07659.75987-1.71333.75987v-10c-2.14517 0-4.209432.896244-5.671219 2.497104L6.42312 7.63688Zm-1.71333.75987c-.56613 0-1.12299-.21003-1.55321-.59636L9.838.360045C8.42523-.908617 6.59983-1.60325 4.70979-1.60325v10Zm-1.54812-.5918 1.14862 1.02862L10.9815 1.3841 9.83291.35548 3.16167 7.80495Zm1.14797 1.02804c-.45832-.41058-.75223-1.01056-.7836-1.65087l9.98806-.48924c-.1006-2.05295-1.0172-3.95128-2.5319-5.3082L4.30964 8.83299Zm-.78273-1.63376c-.0337-.6429.19807-1.26882.61394-1.72477l7.38835 6.73884c1.3708-1.5029 2.0915-3.48656 1.984-5.53752l-9.98629.52345Zm.61576-1.72676-.68041.74518L10.847 12.9605l.6804-.7452-7.38473-6.74283Zm-.68124.74609c.28309-.31019.64717-.53852 1.04681-.65872l2.88023 9.57626c1.32683-.3991 2.52124-1.1486 3.45933-2.1765L3.46143 6.21856Zm1.06199-.66326-.20758.06172 2.84987 9.58528.20758-.0617-2.84987-9.5853Zm-.22315.06637C2.76937 6.08225 1.5314 7.18484.88792 8.61972l9.12448 4.09188c-.53277 1.1881-1.55854 2.1032-2.83113 2.4861l-2.881-9.57603ZM.856431 8.69144C.239386 10.1272.251923 11.8026.978312 13.2701L9.94046 8.83389c.60644 1.22521.61434 2.61711.10344 3.80601L.856431 8.69144Zm.138905 4.61276.096874.192 8.92809-4.50437-.09686-.19201L.995336 13.3042Zm.093424.1851c2.06334 4.1054 5.56897 7.2895 9.85254 8.9664l3.6453-9.3119c-1.9992-.7826-3.614-2.2571-4.5628-4.14512L1.08876 13.4893Zm9.89434 8.9826.1799.0685 3.5617-9.3442-.1799-.0686-3.5617 9.3443Zm.1495.0568c1.3997.544 2.9319.4785 4.2497-.1223l-4.1481-9.099c1.0872-.4957 2.3565-.552 3.5209-.0995l-3.6225 9.3208Zm4.2497-.1223c1.3844-.6311 2.4409-1.8112 2.9165-3.2529l-9.49668-3.1327c.39715-1.2039 1.27828-2.1874 2.43208-2.7134l4.1481 9.099Zm2.9073-3.2253.0599-.1783-9.47822-3.1879-.05997.1783 9.47829 3.1879Zm.0535-.1593c-.1033.3031-.2698.584-.4807.8164l-7.4061-6.7193c-.70445.7764-1.24005 1.6837-1.57861 2.6771l9.46541 3.2258Zm-.4914.8282.6804-.7452-7.3847-6.7428-.6804.7451 7.3847 6.7429Zm.6803-.7451c-.4461.4886-1.0662.7576-1.7133.7576V9.86246c-2.1509 0-4.2149.90444-5.6712 2.49944l7.3845 6.743Zm-1.7133.7576c-.5661 0-1.123-.2101-1.5532-.5964l6.6814-7.4403c-1.4128-1.2687-3.2382-1.96334-5.1282-1.96334V19.8625Zm-1.5481-.5918 1.1486 1.0286 6.6712-7.4495-1.1486-1.0286-6.6712 7.4495Zm1.1504 1.0302c-.9856-.8818-1.0549-2.3929-.1734-3.3606l7.3927 6.734c2.8512-3.1301 2.6159-7.9922-.5516-10.8261l-6.6677 7.4527Zm-.1694-3.365-.6804.7452 7.3847 6.7428.6804-.7452-7.3847-6.7428Zm-.6708.7346c.1667-.1815.3468-.3191.5111-.4145l5.0194 8.649c.6763-.3925 1.2946-.8822 1.835-1.4706l-7.3655-6.7639Zm.419-.3598c.221-.1346.398-.1853.492-.2044.0496-.0102.0858-.0136.1079-.0147.0222-.0012.034-.0002.0358-.0001l-.8837 9.9609c1.7607.1562 3.7246-.1498 5.4515-1.2021l-5.2035-8.5396Zm.6361-.2191c-5.3224-.4726-9.72295-4.4505-10.71697-9.58059l-9.8174 1.90227C-2.04633 18.972 6.04025 26.1901 15.7514 27.0524l.8845-9.9608ZM5.91815 7.50697c.00907.04661.0258.21003-.05083.45982-.03629.11829-.09972.27623-.21376.46343-.10026.16458-.31073.46877-.69621.79457L-1.49766 1.5872c-2.07033 1.74977-2.98365 4.83133-2.40003 7.83012l9.81584-1.91035ZM4.91378 9.2612c.26312-.21731.47426-.43465.63937-.62556l-7.56358-6.54158c.13744-.15891.32089-.34881.55634-.54327L4.91378 9.2612Zm.49752-.4684.03229-.03429-7.27988-6.85589-.03229.03429L5.4113 8.7928Zm.17414-.19145c.03369-.03895.16483-.1897.31138-.39302l-8.11253-5.84696c.12348-.17133.23156-.29465.23757-.3016l7.56358 6.54158Zm.37226-.47941c-.07241.10509-.13841.18465-.18837.24017L-1.66383 1.6727c-.20219.22468-.41119.48253-.61277.77506l8.2343 5.67418Zm-.21258.26688.6804-.74518L-.959217.900815-1.63962 1.646l7.38474 6.74282Zm1.72716-5.71053-.0023-.00686-9.47827 3.18787.00231.00686 9.47826-3.18787Z" fill="#768774" mask="url(#b)"/><path d="M23 10.86c0-1.58241-.3431-3.08675-.9595-4.44382-1.1-2.42205-3.0704-4.37501-5.5138-5.465276C15.1578.340044 13.6403 0 12.0443 0c-.5282 0-.9595.42745-.9595.950904 0 .523456.4313.950906.9595.950906 4.9843 0 9.0367 4.01848 9.0367 8.95819 0 .5234.4313.9509.9595.9509S23 11.3834 23 10.86Zm-.9595.4937c-.2745 0-.4982-.2217-.4982-.4937 0-5.19115-4.26-9.41536-9.498-9.41536-.2744 0-.4982-.22172-.4982-.493736 0-.272013.2238-.493738.4982-.493738 1.1148 0 2.1896.173143 3.1984.493738 3.2188 1.022976 5.7656 3.547246 6.7978 6.738186.3235 1.00004.4982 2.06557.4982 3.17091 0 .272-.2237.4937-.4982.4937Z" fill="#768774" stroke="#768774" stroke-width="58"/><path d="M11.9267 3.53613c-.0008 0-.0015 0-.0023.00001-.5271.00124-.9572.4282-.9572.9509 0 .52269.4301.94966.9572.9509h.0023c3.0814 0 5.5885 2.4847 5.5885 5.53856 0 .5227.4301.9497.9572.9509h.0023c.5282 0 .9595-.4274.9595-.9509 0-1.32023-.3486-2.56117-.9595-3.63717-.0007-.00136-.0015-.00271-.0023-.00406-.6767-1.19022-1.6743-2.17833-2.8757-2.84823-1.0857-.60538-2.3379-.95091-3.67-.95091Zm6.5457 7.93407c-.2744 0-.4982-.2217-.4982-.4937 0-3.30454-2.7111-5.99448-6.0475-5.99572h-.0023c-.2745 0-.4982-.22173-.4982-.49374 0-.27202.2237-.49374.4982-.49374h.0023c.9179.00029 1.7955.17548 2.6005.49374 1.7949.70962 3.229 2.13053 3.9452 3.90977.0008.00191.0016.00382.0023.00573.3199.79681.4959 1.66536.4959 2.57396 0 .2713-.2225.4925-.4959.4937h-.0023Z" fill="#768774" stroke="#768774" stroke-width="58"/></g><defs><clipPath id="a"><path fill="#fff" d="M0 0h23v23H0z"/></clipPath></defs></svg>