<svg width="27" height="16" fill="none" xmlns="http://www.w3.org/2000/svg"><g clip-path="url(#a)" fill="#768774"><path d="M15.8531 13.7379c0 1.2482-1.0248 2.2623-2.2861 2.2623-1.2613 0-2.2861-1.0141-2.2861-2.2623 0-1.2482 1.0248-2.2623 2.2861-2.2623 1.2613 0 2.2861 1.0141 2.2861 2.2623ZM1.40322 10.7577c-.18132 0-.37051-.039-.543944-.1092C.149787 10.352-.181308 9.54071.118254 8.83081 2.40439 3.46368 7.68614 0 13.567 0c5.7075 0 10.934 3.33106 13.3069 8.48757.3232.69429.0079 1.52123-.6937 1.83323-.7017.3199-1.5373.0078-1.8526-.68647-1.9156-4.16578-6.141-6.86495-10.7527-6.86495-4.75358 0-9.0184 2.80059-10.87884 7.14578-.22861.53044-.74102.84254-1.29284.84254Z"/><path d="M20.4806 12.6922c-.5282 0-1.0406-.2965-1.2771-.8036-1.0091-2.16865-3.2242-3.57284-5.6444-3.57284-2.4122 0-4.62743 1.40419-5.64436 3.57284-.32321.6943-1.15095.9986-1.86044.6787-.70161-.3198-1.00905-1.1467-.68584-1.841 1.46628-3.15165 4.68264-5.18773 8.18274-5.18773 3.5081 0 6.7244 2.03608 8.1828 5.18773.3232.6943.0158 1.5212-.6858 1.841-.1892.0859-.3863.1249-.5834.1249h.0158Z"/></g><defs><clipPath id="a"><path fill="#fff" d="M0 0h27v16H0z"/></clipPath></defs></svg>